<svg xmlns="http://www.w3.org/2000/svg" width="48" height="42" viewBox="0 0 48 42">
  <metadata><?xpacket begin="﻿" id="W5M0MpCehiHzreSzNTczkc9d"?>
<x:xmpmeta xmlns:x="adobe:ns:meta/" x:xmptk="Adobe XMP Core 5.6-c138 79.159824, 2016/09/14-01:09:01        ">
   <rdf:RDF xmlns:rdf="http://www.w3.org/1999/02/22-rdf-syntax-ns#">
      <rdf:Description rdf:about=""
            xmlns:xmp="http://ns.adobe.com/xap/1.0/">
         <xmp:CreatorTool>Adobe Photoshop CC 2017 (Windows)</xmp:CreatorTool>
      </rdf:Description>
   </rdf:RDF>
</x:xmpmeta>
                                                                                                    
                                                                                                    
                                                                                                    
                                                                                                    
                                                                                                    
                                                                                                    
                                                                                                    
                                                                                                    
                                                                                                    
                                                                                                    
                                                                                                    
                                                                                                    
                                                                                                    
                                                                                                    
                                                                                                    
                                                                                                    
                                                                                                    
                                                                                                    
                                                                                                    
                                                                                                    
                           
<?xpacket end="w"?></metadata>
<defs>
    <style>
      .cls-1 {
        fill: #1382ff;
        fill-rule: evenodd;
      }
    </style>
  </defs>
  <path id="_2" data-name="2" class="cls-1" d="M65.988,1057.01h-24l-12-21,12-21h24l12,21Zm-1-40h-22l-11,19,11,19h22l11-19ZM63,1053H45l-10.2-16.98L45,1019H63l10.188,17.02Zm-5.511-24.04a5.818,5.818,0,0,0-4.056-1.41c-1.856,0-3.346.22-4.433,1.45-1.072,1.15-.968,3.08-1,5h1.977a5.265,5.265,0,0,1,.912-3.14,2.841,2.841,0,0,1,2.448-1.11,3.353,3.353,0,0,1,2.328.72,2.774,2.774,0,0,1,.792,2.16,4.157,4.157,0,0,1-1.176,2.81,18.931,18.931,0,0,1-2.448,1.97A19.381,19.381,0,0,0,49,1041c-1.136,1.28-1,2.29-1,4H59v-2H50a12.478,12.478,0,0,1,4-4,27.238,27.238,0,0,0,3.369-2.29,5.949,5.949,0,0,0,1.68-4.05A4.8,4.8,0,0,0,57.489,1028.96Z" transform="translate(-30 -1015)"/>
</svg>
