<svg xmlns="http://www.w3.org/2000/svg" width="48" height="43" viewBox="0 0 48 43">
  <metadata><?xpacket begin="﻿" id="W5M0MpCehiHzreSzNTczkc9d"?>
<x:xmpmeta xmlns:x="adobe:ns:meta/" x:xmptk="Adobe XMP Core 5.6-c138 79.159824, 2016/09/14-01:09:01        ">
   <rdf:RDF xmlns:rdf="http://www.w3.org/1999/02/22-rdf-syntax-ns#">
      <rdf:Description rdf:about=""
            xmlns:xmp="http://ns.adobe.com/xap/1.0/">
         <xmp:CreatorTool>Adobe Photoshop CC 2017 (Windows)</xmp:CreatorTool>
      </rdf:Description>
   </rdf:RDF>
</x:xmpmeta>
                                                                                                    
                                                                                                    
                                                                                                    
                                                                                                    
                                                                                                    
                                                                                                    
                                                                                                    
                                                                                                    
                                                                                                    
                                                                                                    
                                                                                                    
                                                                                                    
                                                                                                    
                                                                                                    
                                                                                                    
                                                                                                    
                                                                                                    
                                                                                                    
                                                                                                    
                                                                                                    
                           
<?xpacket end="w"?></metadata>
<defs>
    <style>
      .cls-1 {
        fill: #13bcff;
        fill-rule: evenodd;
      }
    </style>
  </defs>
  <path id="形状_38" data-name="形状 38" class="cls-1" d="M74,752H72v20a2,2,0,0,1-2,2H38a2,2,0,0,1-2-2V752H34a4,4,0,0,1,0-8h6.785A7.988,7.988,0,1,1,54,735.13,7.99,7.99,0,1,1,67.215,744H74A4,4,0,0,1,74,752ZM61,733a5.982,5.982,0,0,0-5.633,4H52.633a5.983,5.983,0,1,0-8.883,7h20.5A5.972,5.972,0,0,0,61,733Zm13,13H64.836a7.915,7.915,0,0,1-.836.413V746H44v0.413A7.915,7.915,0,0,1,43.164,746H34a2,2,0,0,0,0,4H49l5,4,5-4H74A2,2,0,0,0,74,746Z" transform="translate(-30 -731)"/>
</svg>
