<svg xmlns="http://www.w3.org/2000/svg" width="40" height="40" viewBox="0 0 40 40">
  <metadata><?xpacket begin="﻿" id="W5M0MpCehiHzreSzNTczkc9d"?>
<x:xmpmeta xmlns:x="adobe:ns:meta/" x:xmptk="Adobe XMP Core 5.6-c138 79.159824, 2016/09/14-01:09:01        ">
   <rdf:RDF xmlns:rdf="http://www.w3.org/1999/02/22-rdf-syntax-ns#">
      <rdf:Description rdf:about=""
            xmlns:xmp="http://ns.adobe.com/xap/1.0/">
         <xmp:CreatorTool>Adobe Photoshop CC 2017 (Windows)</xmp:CreatorTool>
      </rdf:Description>
   </rdf:RDF>
</x:xmpmeta>
                                                                                                    
                                                                                                    
                                                                                                    
                                                                                                    
                                                                                                    
                                                                                                    
                                                                                                    
                                                                                                    
                                                                                                    
                                                                                                    
                                                                                                    
                                                                                                    
                                                                                                    
                                                                                                    
                                                                                                    
                                                                                                    
                                                                                                    
                                                                                                    
                                                                                                    
                                                                                                    
                           
<?xpacket end="w"?></metadata>
<defs>
    <style>
      .cls-1 {
        fill: #fff;
        fill-rule: evenodd;
      }
    </style>
  </defs>
  <path id="圆角矩形_85" data-name="圆角矩形 85" class="cls-1" d="M66,104H58v-2h6a4,4,0,0,0,4-4V92h2v8A4,4,0,0,1,66,104Zm3-19H31a1,1,0,0,1,0-2H69A1,1,0,0,1,69,85ZM68,70a4,4,0,0,0-4-4H58V64h8a4,4,0,0,1,4,4v8H68V70ZM32,70v6H30V68a4,4,0,0,1,4-4h8v2H36A4,4,0,0,0,32,70Zm0,28a4,4,0,0,0,4,4h6v2H34a4,4,0,0,1-4-4V92h2v6Z" transform="translate(-30 -64)"/>
</svg>
