<svg xmlns="http://www.w3.org/2000/svg" width="40" height="40" viewBox="0 0 40 40">
  <metadata><?xpacket begin="﻿" id="W5M0MpCehiHzreSzNTczkc9d"?>
<x:xmpmeta xmlns:x="adobe:ns:meta/" x:xmptk="Adobe XMP Core 5.6-c138 79.159824, 2016/09/14-01:09:01        ">
   <rdf:RDF xmlns:rdf="http://www.w3.org/1999/02/22-rdf-syntax-ns#">
      <rdf:Description rdf:about=""
            xmlns:xmp="http://ns.adobe.com/xap/1.0/">
         <xmp:CreatorTool>Adobe Photoshop CC 2017 (Windows)</xmp:CreatorTool>
      </rdf:Description>
   </rdf:RDF>
</x:xmpmeta>
                                                                                                    
                                                                                                    
                                                                                                    
                                                                                                    
                                                                                                    
                                                                                                    
                                                                                                    
                                                                                                    
                                                                                                    
                                                                                                    
                                                                                                    
                                                                                                    
                                                                                                    
                                                                                                    
                                                                                                    
                                                                                                    
                                                                                                    
                                                                                                    
                                                                                                    
                                                                                                    
                           
<?xpacket end="w"?></metadata>
<defs>
    <style>
      .cls-1 {
        fill: #fff;
        fill-rule: evenodd;
      }
    </style>
  </defs>
  <path id="圆角矩形_86_拷贝_3" data-name="圆角矩形 86 拷贝 3" class="cls-1" d="M68,458H54a2,2,0,0,1-2-2V442a2,2,0,0,1,2-2H68a2,2,0,0,1,2,2v14A2,2,0,0,1,68,458Zm0-14a2,2,0,0,0-2-2H56a2,2,0,0,0-2,2v10a2,2,0,0,0,2,2H66a2,2,0,0,0,2-2V444ZM46,480H32a2,2,0,0,1-2-2V464a2,2,0,0,1,2-2H46a2,2,0,0,1,2,2v14A2,2,0,0,1,46,480Zm0-14a2,2,0,0,0-2-2H34a2,2,0,0,0-2,2v10a2,2,0,0,0,2,2H44a2,2,0,0,0,2-2V466Zm0-8H32a2,2,0,0,1-2-2V442a2,2,0,0,1,2-2H46a2,2,0,0,1,2,2v14A2,2,0,0,1,46,458Zm0-14a2,2,0,0,0-2-2H34a2,2,0,0,0-2,2v10a2,2,0,0,0,2,2H44a2,2,0,0,0,2-2V444Zm7,18H69a1,1,0,0,1,0,2H53A1,1,0,0,1,53,462Zm0,4a1,1,0,0,1,1,1v12a1,1,0,0,1-2,0V467A1,1,0,0,1,53,466Zm9,12.25H60V466h2v12.25ZM70,480H68V466h2v14Z" transform="translate(-30 -440)"/>
</svg>
