<svg xmlns="http://www.w3.org/2000/svg" width="48" height="48" viewBox="0 0 48 48">
  <metadata><?xpacket begin="﻿" id="W5M0MpCehiHzreSzNTczkc9d"?>
<x:xmpmeta xmlns:x="adobe:ns:meta/" x:xmptk="Adobe XMP Core 5.6-c138 79.159824, 2016/09/14-01:09:01        ">
   <rdf:RDF xmlns:rdf="http://www.w3.org/1999/02/22-rdf-syntax-ns#">
      <rdf:Description rdf:about=""
            xmlns:xmp="http://ns.adobe.com/xap/1.0/">
         <xmp:CreatorTool>Adobe Photoshop CC 2017 (Windows)</xmp:CreatorTool>
      </rdf:Description>
   </rdf:RDF>
</x:xmpmeta>

<?xpacket end="w"?></metadata>
<defs>
    <style>
      .cls-1 {
        fill: #3b4980;
        fill-rule: evenodd;
      }
    </style>
  </defs>
  <path id="矩形_39" data-name="矩形 39" class="cls-1" d="M656,1296a24,24,0,1,1,24-24A24,24,0,0,1,656,1296Zm10-32a10,10,0,1,0-14.7,8.83A13.985,13.985,0,0,0,642,1286h2a12,12,0,0,1,24,0h2a13.985,13.985,0,0,0-9.3-13.17A10.016,10.016,0,0,0,666,1264Zm-18,0a8,8,0,1,1,8,8A8,8,0,0,1,648,1264Z" transform="translate(-632 -1248)"/>
</svg>
