<svg xmlns="http://www.w3.org/2000/svg" width="48" height="40" viewBox="0 0 48 40">
  <metadata><?xpacket begin="﻿" id="W5M0MpCehiHzreSzNTczkc9d"?>
<x:xmpmeta xmlns:x="adobe:ns:meta/" x:xmptk="Adobe XMP Core 5.6-c138 79.159824, 2016/09/14-01:09:01        ">
   <rdf:RDF xmlns:rdf="http://www.w3.org/1999/02/22-rdf-syntax-ns#">
      <rdf:Description rdf:about=""
            xmlns:xmp="http://ns.adobe.com/xap/1.0/">
         <xmp:CreatorTool>Adobe Photoshop CC 2017 (Windows)</xmp:CreatorTool>
      </rdf:Description>
   </rdf:RDF>
</x:xmpmeta>

<?xpacket end="w"?></metadata>
<defs>
    <style>
      .cls-1 {
        fill: #3b4980;
        fill-rule: evenodd;
      }
    </style>
  </defs>
  <path id="圆角矩形_83_拷贝_2" data-name="圆角矩形 83 拷贝 2" class="cls-1" d="M491,1293H451a4,4,0,0,1-4-4v-32a4,4,0,0,1,4-4h40a4,4,0,0,1,4,4v32A4,4,0,0,1,491,1293Zm-10-24H463.414l4.121-4.12a1,1,0,0,0-1.414-1.42l-5.657,5.66c-0.029.03-.041,0.07-0.067,0.1a0.988,0.988,0,0,0,.6,1.78h20A1,1,0,0,0,481,1269Zm0,6H461a1,1,0,0,0,0,2h17.586l-4.122,4.12a1,1,0,0,0,1.415,1.42l5.657-5.66c0.029-.03.041-0.07,0.067-0.1A0.988,0.988,0,0,0,481,1275Z" transform="translate(-447 -1253)"/>
</svg>
