<svg xmlns="http://www.w3.org/2000/svg" width="48" height="40" viewBox="0 0 48 40">
  <metadata><?xpacket begin="﻿" id="W5M0MpCehiHzreSzNTczkc9d"?>
<x:xmpmeta xmlns:x="adobe:ns:meta/" x:xmptk="Adobe XMP Core 5.6-c138 79.159824, 2016/09/14-01:09:01        ">
   <rdf:RDF xmlns:rdf="http://www.w3.org/1999/02/22-rdf-syntax-ns#">
      <rdf:Description rdf:about=""
            xmlns:xmp="http://ns.adobe.com/xap/1.0/">
         <xmp:CreatorTool>Adobe Photoshop CC 2017 (Windows)</xmp:CreatorTool>
      </rdf:Description>
   </rdf:RDF>
</x:xmpmeta>

<?xpacket end="w"?></metadata>
<defs>
    <style>
      .cls-1 {
        fill: #15e7f9;
        fill-rule: evenodd;
      }
    </style>
  </defs>
  <path id="椭圆_70" data-name="椭圆 70" class="cls-1" d="M115,1294H75a4,4,0,0,1-4-4v-32a4,4,0,0,1,4-4h40a4,4,0,0,1,4,4v9H97a2,2,0,0,0-2,2v10a2,2,0,0,0,2,2h22v9A4,4,0,0,1,115,1294Zm-18-17v-6a2,2,0,0,1,2-2h20v10H99A2,2,0,0,1,97,1277Zm5-1a2,2,0,1,0-2-2A2,2,0,0,0,102,1276Z" transform="translate(-71 -1254)"/>
</svg>
